<?xml version="1.0" encoding="utf-8"?>
<svg width="20px" height="18px" viewBox="0 0 20 18" version="1.1" xmlns:xlink="http://www.w3.org/1999/xlink" xmlns="http://www.w3.org/2000/svg">

  <path d="M14.83 2L18 2C19.1 2 20 2.9 20 4L20 16C20 17.1 19.1 18 18 18L2 18C0.9 18 0 17.1 0 16L0 4C0 2.9 0.9 2 2 2L5.17 2L6.4 0.65C6.78 0.24 7.32 0 7.88 0L12.12 0C12.68 0 13.22 0.24 13.59 0.65L14.83 2ZM12 10L14.5 12.5L17 10L15 10C15 7.24 12.76 5 10 5C9.41 5 8.85 5.11 8.33 5.3C7.99 5.43 7.89 5.86 8.15 6.12C8.29 6.26 8.49 6.3 8.68 6.23C9.09 6.08 9.54 6 10 6C12.21 6 14 7.79 14 10L12 10ZM11.67 14.7C11.15 14.89 10.59 15 10 15C7.24 15 5 12.76 5 10L3 10L5.5 7.5L8 10L6 10C6 12.21 7.79 14 10 14C10.46 14 10.91 13.92 11.32 13.77C11.51 13.7 11.71 13.74 11.85 13.88C12.11 14.14 12.01 14.57 11.67 14.7Z" id="change-camera" fill="#FFFFFF" fill-rule="evenodd" stroke="none" />
</svg>
