<?xml version="1.0" encoding="utf-8"?>
<svg width="16px" height="17px" viewBox="0 0 16 17" version="1.1" xmlns:xlink="http://www.w3.org/1999/xlink" xmlns="http://www.w3.org/2000/svg">

  <path d="M12.4152 4.99925L15.0002 5.00025C15.5522 5.00025 16.0002 5.44825 16.0002 6.00125C15.9993 6.55325 15.5513 7.00025 15.0002 7.00025L14.9993 7.00025L10.0243 6.99725C9.47425 6.99725 9.02725 6.55225 9.02425 6.00225L9.00025 1.00525C8.99725 0.45325 9.44225 0.00325 9.99525 0.00025L10.0002 0.00025C10.5503 0.00025 10.9972 0.44425 11.0002 0.99525L11.0122 3.57325L14.2922 0.29325C14.6832 -0.09775 15.3162 -0.09775 15.7072 0.29325C16.0972 0.68425 16.0972 1.31625 15.7072 1.70725L12.4152 4.99925ZM1.00425 9.00065L6.00125 9.02565C6.55125 9.02865 6.99625 9.47465 6.99625 10.0247L7.00025 14.9997C7.00025 15.5517 6.55225 16.0007 6.00025 16.0007C5.44725 16.0007 5.00025 15.5527 5.00025 15.0017L4.99825 12.4167L1.70725 15.7077C1.51125 15.9027 1.25525 16.0007 1.00025 16.0007C0.74425 16.0007 0.48825 15.9027 0.29325 15.7077C-0.09775 15.3167 -0.09775 14.6837 0.29325 14.2937L3.57225 11.0137L0.99525 11.0007C0.44225 10.9977 -0.00275 10.5466 0.00025 9.99565C0.00225 9.44465 0.45025 9.00065 1.00025 9.00065L1.00425 9.00065Z" id="filscreen-off" fill="#FFFFFF" fill-rule="evenodd" stroke="none" />
</svg>
