<?xml version="1.0" encoding="utf-8"?>
<svg width="20px" height="20px" viewBox="0 0 20 20" version="1.1" xmlns:xlink="http://www.w3.org/1999/xlink" xmlns="http://www.w3.org/2000/svg">

  <path d="M13.7325 5.93L15.5825 7.78C15.1625 8.6 14.6725 9.38 14.1225 10.11L15.5525 11.54C17.6325 8.9 18.9525 5.64 19.1725 2.07C19.2425 0.94 18.3025 0 17.1725 0L15.4425 0C14.4225 0 13.5725 0.76 13.4525 1.77L13.1625 4.29C13.0925 4.9 13.3025 5.5 13.7325 5.93ZM3.2825 17.96C6.8425 17.74 10.1025 16.43 12.7325 14.35L17.2725 18.89C17.6625 19.28 18.2925 19.28 18.6825 18.89C19.0725 18.5 19.0725 17.87 18.6825 17.48L1.7125 0.5C1.3225 0.11 0.6825 0.11 0.2925 0.5C-0.0975 0.89 -0.0975 1.52 0.2925 1.91L11.3025 12.92C10.5825 13.47 9.8025 13.96 8.9925 14.37L7.1525 12.53C6.7225 12.1 6.1225 11.89 5.5125 11.96L2.9725 12.25C1.9625 12.37 1.2025 13.22 1.2125 14.23L1.2125 15.96C1.2125 17.09 2.1525 18.03 3.2825 17.96Z" id="stop-call" fill="#FFFFFF" fill-rule="evenodd" stroke="none" />
</svg>
