<?xml version="1.0" encoding="utf-8"?>
<svg width="20px" height="19px" viewBox="0 0 20 19" version="1.1" xmlns:xlink="http://www.w3.org/1999/xlink" xmlns="http://www.w3.org/2000/svg">

  <path d="M13.0004 10.5862L18.7074 16.2933C19.0984 16.6842 19.0984 17.3162 18.7074 17.7073C18.5124 17.9023 18.2564 18.0002 18.0004 18.0002C17.7444 18.0002 17.4884 17.9023 17.2934 17.7073L14.3864 14.8003L12.9314 13.3453L3.5864 4.00025L1.8264 2.24025L1.2934 1.70725C0.9024 1.31625 0.9024 0.68425 1.2934 0.29325C1.6844 -0.09775 2.3164 -0.09775 2.7074 0.29325L4.4144 2.00025L6.4144 4.00025L13.0004 10.5862ZM19.0121 4.14575C18.3861 3.87375 17.6601 3.99175 17.1611 4.45175L15.0001 6.45175L15.0001 4.99975C15.0001 3.34575 13.6551 1.99975 12.0001 1.99975L5.8281 1.99975L7.1211 3.29275L15.7071 11.8787L17.7181 13.8898C17.9101 13.9618 18.1141 13.9998 18.3201 13.9998C18.5531 13.9998 18.7881 13.9528 19.0121 13.8547C19.6211 13.5887 20.0001 13.0198 20.0001 12.3708L20.0001 5.62975C20.0001 4.98075 19.6211 4.41175 19.0121 4.14575ZM2.879 4.70705L12.224 14.052L13.665 15.493C13.189 15.813 12.617 16 12 16L3 16C1.346 16 0 14.6551 0 13L0 5.00005C0 4.12905 0.379 3.35105 0.974 2.80205L1.12 2.94805L2.879 4.70705Z" id="stop-camera" fill="#FFFFFF" fill-rule="evenodd" stroke="none" />
</svg>
