<svg height="20" viewBox="0 0 20 20" width="20" xmlns="http://www.w3.org/2000/svg"><path d="m13.7325 5.93 1.85 1.85c-.42.82-.91 1.6-1.46 2.33l1.43 1.43c2.08-2.64 3.4-5.9 3.62-9.47.07-1.13-.87-2.07-2-2.07h-1.73c-1.02 0-1.87.76-1.99 1.77l-.29 2.52c-.07.61.14 1.21.57 1.64zm-10.45 12.03c3.56-.22 6.82-1.53 9.45-3.61l4.54 4.54c.39.39 1.02.39 1.41 0s.39-1.02 0-1.41l-16.97-16.98c-.39-.39-1.03-.39-1.42 0s-.39 1.02 0 1.41l11.01 11.01c-.72.55-1.5 1.04-2.31 1.45l-1.84-1.84c-.43-.43-1.03-.64-1.64-.57l-2.54.29c-1.01.12-1.77.97-1.76 1.98v1.73c0 1.13.94 2.07 2.07 2z" fill="#fff" fill-rule="evenodd"/></svg>