<svg height="18" viewBox="0 0 20 18" width="20" xmlns="http://www.w3.org/2000/svg"><path d="m14.83 2h3.17c1.1 0 2 .9 2 2v12c0 1.1-.9 2-2 2h-16c-1.1 0-2-.9-2-2v-12c0-1.1.9-2 2-2h3.17l1.23-1.35c.38-.41.92-.65 1.48-.65h4.24c.56 0 1.1.24 1.47.65zm-2.83 8 2.5 2.5 2.5-2.5h-2c0-2.76-2.24-5-5-5-.59 0-1.15.11-1.67.3-.34.13-.44.56-.18.82.14.14.34.18.53.11.41-.15.86-.23 1.32-.23 2.21 0 4 1.79 4 4zm-.33 4.7c-.52.19-1.08.3-1.67.3-2.76 0-5-2.24-5-5h-2l2.5-2.5 2.5 2.5h-2c0 2.21 1.79 4 4 4 .46 0 .91-.08 1.32-.23.19-.07.39-.03.53.11.26.26.16.69-.18.82z" fill="#fff" fill-rule="evenodd"/></svg>