<svg height="19" viewBox="0 0 20 19" width="20" xmlns="http://www.w3.org/2000/svg"><path d="m13.0004 10.5862 5.707 5.7071c.391.3909.391 1.0229 0 1.414-.195.195-.451.2929-.707.2929s-.512-.0979-.707-.2929l-2.907-2.907-1.455-1.455-9.345-9.34505-1.76-1.76-.533-.533c-.391-.391-.391-1.023 0-1.414s1.023-.391 1.414 0l1.707 1.707 2 2zm6.0117-6.44045c-.626-.272-1.352-.154-1.851.306l-2.161 2v-1.452c0-1.654-1.345-3-3-3h-6.172l1.293 1.293 8.586 8.58595 2.011 2.0111c.192.072.396.11.602.11.233 0 .468-.047.692-.1451.609-.266.988-.8349.988-1.4839v-6.74105c0-.649-.379-1.218-.988-1.484zm-16.1331.5613 9.345 9.34495 1.441 1.441c-.476.32-1.048.507-1.665.507h-9c-1.654 0-3-1.3449-3-3v-7.99995c0-.871.379-1.649.974-2.198l.146.146z" fill="#fff" fill-rule="evenodd"/></svg>