<svg height="17" viewBox="0 0 16 17" width="16" xmlns="http://www.w3.org/2000/svg"><path d="m12.4152 4.99925 2.585.001c.552 0 1 .448 1 1.001-.0009.552-.4489.999-1 .999h-.0009l-4.975-.003c-.55005 0-.99705-.445-1.00005-.995l-.024-4.997c-.003-.552.442-1.002.995-1.005h.00495c.5501 0 .997.444 1 .995l.012 2.578 3.28-3.28c.391-.391 1.024-.391 1.415 0 .39.391.39 1.023 0 1.414zm-11.41095 4.0014 4.997.025c.55.003.995.449.995.99905l.004 4.975c0 .552-.448 1.001-1 1.001-.553 0-1-.448-1-.999l-.002-2.585-3.291 3.291c-.196.195-.452.293-.707.293-.256 0-.512-.098-.707-.293-.391-.391-.391-1.024 0-1.414l3.279-3.28-2.577-.013c-.553-.003-.998-.4541-.995-1.00505.002-.551.45-.995 1-.995z" fill="#fff" fill-rule="evenodd"/></svg>