<svg height="16" viewBox="0 0 16 16" width="16" xmlns="http://www.w3.org/2000/svg"><path d="m15.002.025c.55.003.995.449.995.999l.003 4.975c.001.552-.447 1.001-.999 1.001h-.001c-.552 0-.999-.448-1-.999l-.002-2.585-3.291 3.291c-.195.195-.451.293-.707.293-.25498 0-.51099-.098-.70699-.293-.38999-.391-.38999-1.024 0-1.414l3.27999-3.28-2.57699-.013c-.55299-.003-.999-.454-.99599-1.005.003-.551.451-.995.99998-.995h.005zm-9.70898 9.26752c.391-.391 1.023-.391 1.414 0 .39099.391.39099 1.02298 0 1.41398l-3.292 3.292 2.58499.001c.553 0 1.00001.448 1.00001 1.001-.00101.552-.448.999-1.00001.999h-.00099l-4.975-.003c-.550005 0-.996005-.445-.999005-.995l-.02499995-4.997c-.003-.55198.44299995-1.00198.99499995-1.00498h.005005c.55 0 .997.444 1 .995l.013 2.57798z" fill="#fff" fill-rule="evenodd"/></svg>