<?xml version="1.0" encoding="utf-8"?>
<svg width="78px" height="81px" viewBox="0 0 78 81" version="1.1" xmlns:xlink="http://www.w3.org/1999/xlink" xmlns="http://www.w3.org/2000/svg">
  <desc>Created with Lunacy</desc>
  <g id="Group-3" transform="translate(0.5 0.5)">
    <g id="Group">
      <path d="M0 0L77 0L77 80L0 80L0 0Z" id="Rectangle" fill="#000000" fill-opacity="0.3795108" stroke="none" />
      <path d="M43.12 0L38.5 0L38.5 4.61539L33.88 4.61539L33.88 0L29.26 0L29.26 20L13.86 20L13.86 -4.3248e-17L9.24 -4.3248e-17L9.24 4.61539L4.62 4.61539L4.62 -4.3248e-17L0 -4.3248e-17L0 49.2308L13.86 49.2308L13.86 33.8462L29.26 33.8462L29.26 49.2308L43.12 49.2308L43.12 0Z" transform="translate(16.94 15.38461)" id="Path" fill="#FFFFFF" stroke="none" />
    </g>
  </g>
</svg>