<svg height="16" viewBox="0 0 16 16" width="16" xmlns="http://www.w3.org/2000/svg"><path d="m8 16c-4.42857 0-8-3.5714-8-8 0-4.42857 3.57143-8 8-8 4.4286 0 8 3.57143 8 8 0 4.4286-3.5714 8-8 8zm6.5-8c0 3.5982-2.9018 6.5-6.5 6.5-3.59821 0-6.5-2.9018-6.5-6.5 0-3.59821 2.90179-6.5 6.5-6.5 3.5982 0 6.5 2.90179 6.5 6.5zm-6.5-2c-.6875 0-1.25-.5625-1.25-1.25s.5625-1.25 1.25-1.25 1.25.5625 1.25 1.25-.5625 1.25-1.25 1.25zm.48722 1h-1.7547c-.14199 0-.2127.01857-.27789.05343-.06518.03486-.11634.08602-.1512.1512-.03486.06519-.05343.1359-.05343.27789v.30357c0 .11611.00959.15829.02879.20238.01919.04409.04798.08061.08638.10956.03839.02896.07717.04813.19007.07523l.53777.12906c.15054.03613.20224.0617.25344.1003.05119.0386.08958.0873.11517.14608.02559.05879.03838.11504.03838.26985v1.86295c0 .1548-.01279.211-.03838.2698s-.06398.1075-.11517.1461c-.0512.0386-.1029.0641-.25344.1003l-.53777.129c-.1129.0271-.15168.0463-.19007.0753-.0384.0289-.06719.0654-.08638.1095-.0192.0441-.02879.0863-.02879.2024v.3036c0 .142.01857.2127.05343.2779s.08602.1163.1512.1512c.06519.0348.1359.0534.27789.0534h3.05429c.1188 0 .19337-.0186.25859-.0534.0652-.0349.1163-.086.1512-.1512.0348-.0652.0534-.1398.0534-.2586v-.2426c0-.1107-.0084-.1509-.0256-.1933s-.0432-.078-.0783-.1073c-.0352-.0293-.0708-.0495-.17628-.0833l-.60959-.195c-.13557-.0434-.18144-.0694-.22661-.1071s-.07857-.0835-.10069-.138c-.02211-.0545-.03293-.1061-.03293-.2484v-3.20902c0-.17831-.01857-.24296-.05343-.30815-.03486-.06518-.08602-.11634-.1512-.1512-.06519-.03486-.12984-.05343-.30815-.05343z" fill="#d7d7d7" fill-rule="evenodd"/></svg>