<svg height="20" viewBox="0 0 19 20" width="19" xmlns="http://www.w3.org/2000/svg"><path d="m12.5793 10.751c.261-.531.421-1.12.421-1.751v-5c0-2.206-1.7939-4-3.99995-4-1.948 0-3.57 1.401-3.924 3.248zm5.128 6.542-16.00005-16c-.391-.391-1.023-.391-1.414 0s-.391 1.023 0 1.414l15.99995 16c.195.195.451.293.707.293.2561 0 .5121-.098.7071-.293.391-.391.391-1.023 0-1.414zm-7.7071.707h2c.5501 0 1 .45 1 1s-.4499 1-1 1h-5.99995c-.55 0-1-.45-1-1s.45-1 1-1h2v-2.08c-3.387-.488-6-3.4-6-6.92 0-.552.447-1 1-1s1 .448 1 1c0 2.757 2.243 5 5 5 .362 0 .714-.043 1.05505-.117l1.593 1.593c-.5211.214-1.0751.36-1.6481.443zm6-9c0-.552-.447-1-1-1-.5529 0-1 .448-1 1 0 .909-.262 1.75-.6879 2.484l1.4629 1.463c.772-1.124 1.225-2.483 1.225-3.947zm-6.84395 3.984c-.052.002-.102.016-.156.016-2.206 0-4-1.794-4-4v-.172z" fill="#fff" fill-rule="evenodd"/></svg>