<svg height="20" viewBox="0 0 20 20" width="20" xmlns="http://www.w3.org/2000/svg"><path d="m15.401 0h-12.80102c-1.433 0-2.59900344 1.246-2.59900344 2.777v1.17784q-.00097656.02207-.00097656.04416v4.002q0 .09839.0191955.19489.0191955.09651.0568488.18741.0376537.0909.0923177.17271.054664.08182.124238.15139.069575.06957.151385.12424.081811.05466.172714.09231.090903.03766.187406.05685.096502.0192.194895.0192h.002q.09839 0 .1949-.0192.0965-.01919.1874-.05685.0909-.03765.17271-.09231.08182-.05467.15139-.12424.06957-.06957.12424-.15139.05466-.08181.09232-.17271.03765-.0909.05684-.18741.0192-.0965.0192-.19489v-3.95636c.00065-.0148.00098-.02968.00098-.04464v-1.223c0-.421.274-.777.599-.777h12.80102c.325 0 .6.356.6.777v12.446c0 .421-.275.777-.6.777h-5.402q-.09839 0-.1949.0192-.0965.0192-.1874.0568-.09091.0377-.17272.0924-.08181.0546-.15138.1242-.06957.0696-.12424.1514-.05466.0818-.09232.1727-.03765.0909-.05685.1874-.01919.0965-.01919.1949v.002q0 .0984.01919.1949.0192.0965.05685.1874.03766.0909.09232.1727.05467.0818.12424.1514.06957.0696.15138.1242.08181.0547.17272.0924.0909.0376.1874.0568.09651.0192.1949.0192h5.402c1.434 0 2.6-1.246 2.6-2.777v-12.446c0-1.531-1.166-2.777-2.6-2.777zm-10.10798 11.2933c.391-.391 1.023-.391 1.414 0 .39099.3909.39099 1.0229 0 1.4139l-3.292 3.2921 2.58499.0009c.553 0 1.00001.448 1.00001 1.001-.00101.552-.448.999-1.00001.999h-.00099l-4.975-.003c-.550005 0-.996005-.445-.999005-.9949l-.02499995-4.9971c-.003-.552.44299995-1.0019.99499995-1.005h.005005c.55 0 .997.4441 1 .995l.013 2.578z" fill="#fff" fill-rule="evenodd" transform="matrix(1 0 0 -1 .5 18.50049)"/></svg>