<svg height="10" viewBox="0 0 10 10" width="10" xmlns="http://www.w3.org/2000/svg"><path d="m9.56491 3.40933-2.75383-.27408c-.1736-.01661-.32361-.13288-.39455-.30729l-.98636-2.516511c-.15782-.415265-.71815-.415265-.87596 0l-.97847 2.516511c-.06313.17441-.22095.29068-.39455.30729l-2.753915.27408c-.4103256.04152-.576034.58137-.26829.87206l2.075305 1.91852c.13414.12458.18938.3073.14992.49001l-.62338 2.69084c-.09469.42365.33931.77244.70229.54823l2.29625-1.42029c.14993-.09135.33142-.09135.48134 0l2.29633 1.42029c.36298.22421.79698-.11627.70221-.54823l-.61549-2.69084c-.03946-.18271.01578-.36543.14992-.49001l2.07531-1.91852c.29981-.29069.12625-.83054-.28408-.87206z" fill="#dd0016"/></svg>