<?xml version="1.0" encoding="utf-8"?>
<svg width="16px" height="16px" viewBox="0 0 16 16" version="1.1" xmlns:xlink="http://www.w3.org/1999/xlink" xmlns="http://www.w3.org/2000/svg">

  <path d="M15.002 0.025C15.552 0.028 15.997 0.474 15.997 1.024L16 5.999C16.001 6.551 15.553 7 15.001 7L15 7C14.448 7 14.001 6.552 14 6.001L13.998 3.416L10.707 6.707C10.512 6.902 10.256 7 10 7C9.74502 7 9.48901 6.902 9.29301 6.707C8.90302 6.316 8.90302 5.683 9.29301 5.293L12.573 2.013L9.99601 2C9.44302 1.997 8.99701 1.546 9.00002 0.995C9.00302 0.444 9.45102 0 10 0L10.005 0L15.002 0.025ZM5.29302 9.29252C5.68402 8.90152 6.31602 8.90152 6.70702 9.29252C7.09801 9.68352 7.09801 10.3155 6.70702 10.7065L3.41502 13.9985L6.00001 13.9995C6.55301 13.9995 7.00002 14.4475 7.00002 15.0005C6.99901 15.5525 6.55202 15.9995 6.00001 15.9995L5.99902 15.9995L1.02402 15.9965C0.474015 15.9965 0.028015 15.5515 0.025015 15.0015L1.50462e-05 10.0045C-0.00298495 9.45252 0.443015 9.00252 0.995015 8.99952L1.00002 8.99952C1.55002 8.99952 1.99702 9.44352 2.00002 9.99452L2.01302 12.5725L5.29302 9.29252Z" id="fullscreen" fill="#FFFFFF" fill-rule="evenodd" stroke="none" />
</svg>
