<?xml version="1.0" encoding="utf-8"?>
<svg width="19px" height="20px" viewBox="0 0 19 20" version="1.1" xmlns:xlink="http://www.w3.org/1999/xlink" xmlns="http://www.w3.org/2000/svg">

  <path d="M12.5793 10.751C12.8403 10.22 13.0003 9.631 13.0003 9L13.0003 4C13.0003 1.794 11.2064 0 9.00035 0C7.05235 0 5.43035 1.401 5.07635 3.248L12.5793 10.751ZM17.7073 17.293L1.70725 1.293C1.31625 0.902 0.68425 0.902 0.29325 1.293C-0.09775 1.684 -0.09775 2.316 0.29325 2.707L16.2932 18.707C16.4882 18.902 16.7442 19 17.0002 19C17.2563 19 17.5123 18.902 17.7073 18.707C18.0983 18.316 18.0983 17.684 17.7073 17.293ZM10.0002 18L12.0002 18C12.5503 18 13.0002 18.45 13.0002 19C13.0002 19.55 12.5503 20 12.0002 20L6.00025 20C5.45025 20 5.00025 19.55 5.00025 19C5.00025 18.45 5.45025 18 6.00025 18L8.00025 18L8.00025 15.92C4.61325 15.432 2.00025 12.52 2.00025 9C2.00025 8.448 2.44725 8 3.00025 8C3.55325 8 4.00025 8.448 4.00025 9C4.00025 11.757 6.24325 14 9.00025 14C9.36225 14 9.71425 13.957 10.0553 13.883L11.6483 15.476C11.1272 15.69 10.5732 15.836 10.0002 15.919L10.0002 18ZM16.0002 9C16.0002 8.448 15.5532 8 15.0002 8C14.4473 8 14.0002 8.448 14.0002 9C14.0002 9.909 13.7382 10.75 13.3123 11.484L14.7752 12.947C15.5472 11.823 16.0002 10.464 16.0002 9ZM9.15625 12.984C9.10425 12.986 9.05425 13 9.00025 13C6.79425 13 5.00025 11.206 5.00025 9L5.00025 8.828L9.15625 12.984Z" id="stop-mic" fill="#FFFFFF" fill-rule="evenodd" stroke="none" />
</svg>
