<?xml version="1.0" encoding="utf-8"?>
<svg width="16px" height="16px" viewBox="0 0 16 16" version="1.1" xmlns:xlink="http://www.w3.org/1999/xlink" xmlns="http://www.w3.org/2000/svg">

  <g id="information">
    <path d="M8 16C3.57143 16 0 12.4286 0 8C0 3.57143 3.57143 0 8 0C12.4286 0 16 3.57143 16 8C16 12.4286 12.4286 16 8 16ZM14.5 8C14.5 11.5982 11.5982 14.5 8 14.5C4.40179 14.5 1.5 11.5982 1.5 8C1.5 4.40179 4.40179 1.5 8 1.5C11.5982 1.5 14.5 4.40179 14.5 8ZM8 6C7.3125 6 6.75 5.4375 6.75 4.75C6.75 4.0625 7.3125 3.5 8 3.5C8.6875 3.5 9.25 4.0625 9.25 4.75C9.25 5.4375 8.6875 6 8 6ZM8.48722 7L6.73252 7C6.59053 7 6.51982 7.01857 6.45463 7.05343C6.38945 7.08829 6.33829 7.13945 6.30343 7.20463C6.26857 7.26982 6.25 7.34053 6.25 7.48252L6.25 7.78609C6.25 7.9022 6.25959 7.94438 6.27879 7.98847C6.29798 8.03256 6.32677 8.06908 6.36517 8.09803C6.40356 8.12699 6.44234 8.14616 6.55524 8.17326L7.09301 8.30232C7.24355 8.33845 7.29525 8.36402 7.34645 8.40262C7.39764 8.44122 7.43603 8.48992 7.46162 8.5487C7.48721 8.60749 7.5 8.66374 7.5 8.81855L7.5 10.6815C7.5 10.8363 7.48721 10.8925 7.46162 10.9513C7.43603 11.0101 7.39764 11.0588 7.34645 11.0974C7.29525 11.136 7.24355 11.1615 7.09301 11.1977L6.55524 11.3267C6.44234 11.3538 6.40356 11.373 6.36517 11.402C6.32677 11.4309 6.29798 11.4674 6.27879 11.5115C6.25959 11.5556 6.25 11.5978 6.25 11.7139L6.25 12.0175C6.25 12.1595 6.26857 12.2302 6.30343 12.2954C6.33829 12.3606 6.38945 12.4117 6.45463 12.4466C6.51982 12.4814 6.59053 12.5 6.73252 12.5L9.78681 12.5C9.90561 12.5 9.98018 12.4814 10.0454 12.4466C10.1106 12.4117 10.1617 12.3606 10.1966 12.2954C10.2314 12.2302 10.25 12.1556 10.25 12.0368L10.25 11.7942C10.25 11.6835 10.2416 11.6433 10.2244 11.6009C10.2072 11.5585 10.1812 11.5229 10.1461 11.4936C10.1109 11.4643 10.0753 11.4441 9.96982 11.4103L9.36023 11.2153C9.22466 11.1719 9.17879 11.1459 9.13362 11.1082C9.08845 11.0705 9.05505 11.0247 9.03293 10.9702C9.01082 10.9157 9 10.8641 9 10.7218L9 7.51278C9 7.33447 8.98143 7.26982 8.94657 7.20463C8.91171 7.13945 8.86055 7.08829 8.79537 7.05343C8.73018 7.01857 8.66553 7 8.48722 7Z" id="Style" fill="#D7D7D7" fill-rule="evenodd" stroke="none" />
  </g>
</svg>
