<?xml version="1.0" encoding="utf-8"?>
<svg width="20px" height="20px" viewBox="0 0 20 20" version="1.1" xmlns:xlink="http://www.w3.org/1999/xlink" xmlns="http://www.w3.org/2000/svg">

  <path d="M15.401 0L2.59998 0C1.16698 0 0.000976563 1.246 0.000976563 2.777L0.000976563 3.95484Q0 3.97691 0 3.999L0 8.001Q0 8.09939 0.0191955 8.19589Q0.038391 8.2924 0.0760443 8.3833Q0.113698 8.4742 0.168362 8.55601Q0.223026 8.63783 0.2926 8.7074Q0.362175 8.77697 0.443985 8.83164Q0.525796 8.8863 0.616699 8.92395Q0.707602 8.96161 0.804105 8.9808Q0.900607 9 0.999 9L1.001 9Q1.09939 9 1.1959 8.9808Q1.2924 8.96161 1.3833 8.92395Q1.4742 8.8863 1.55601 8.83164Q1.63783 8.77697 1.7074 8.7074Q1.77697 8.63783 1.83164 8.55601Q1.8863 8.4742 1.92396 8.3833Q1.96161 8.2924 1.9808 8.19589Q2 8.09939 2 8.001L2 4.04464C2.00065 4.02984 2.00098 4.01496 2.00098 4L2.00098 2.777C2.00098 2.356 2.27498 2 2.59998 2L15.401 2C15.726 2 16.001 2.356 16.001 2.777L16.001 15.223C16.001 15.644 15.726 16 15.401 16L9.999 16Q9.90061 16 9.8041 16.0192Q9.7076 16.0384 9.6167 16.076Q9.52579 16.1137 9.44398 16.1684Q9.36217 16.223 9.2926 16.2926Q9.22303 16.3622 9.16836 16.444Q9.1137 16.5258 9.07604 16.6167Q9.03839 16.7076 9.01919 16.8041Q9 16.9006 9 16.999L9 17.001Q9 17.0994 9.01919 17.1959Q9.03839 17.2924 9.07604 17.3833Q9.1137 17.4742 9.16836 17.556Q9.22303 17.6378 9.2926 17.7074Q9.36217 17.777 9.44398 17.8316Q9.52579 17.8863 9.6167 17.924Q9.7076 17.9616 9.8041 17.9808Q9.90061 18 9.999 18L15.401 18C16.835 18 18.001 16.754 18.001 15.223L18.001 2.777C18.001 1.246 16.835 0 15.401 0ZM5.29302 11.2933C5.68402 10.9023 6.31602 10.9023 6.70702 11.2933C7.09801 11.6842 7.09801 12.3162 6.70702 12.7072L3.41502 15.9993L6.00001 16.0002C6.55301 16.0002 7.00002 16.4482 7.00002 17.0012C6.99901 17.5532 6.55202 18.0002 6.00001 18.0002L5.99902 18.0002L1.02402 17.9972C0.474015 17.9972 0.028015 17.5522 0.025015 17.0023L1.50462e-05 12.0052C-0.00298495 11.4532 0.443015 11.0033 0.995015 11.0002L1.00002 11.0002C1.55002 11.0002 1.99702 11.4443 2.00002 11.9952L2.01302 14.5732L5.29302 11.2933Z" transform="matrix(1 0 0 -1 0.5 18.50049)" id="normal-size" fill="#FFFFFF" fill-rule="evenodd" stroke="none" />
</svg>
