<?xml version="1.0" encoding="utf-8"?>
<svg width="10px" height="10px" viewBox="0 0 10 10" version="1.1" xmlns:xlink="http://www.w3.org/1999/xlink" xmlns="http://www.w3.org/2000/svg">

  <g id="icon/star-active">
    <path d="M9.56491 3.40933L6.81108 3.13525C6.63748 3.11864 6.48747 3.00237 6.41653 2.82796L5.43017 0.311449C5.27235 -0.103816 4.71202 -0.103816 4.55421 0.311449L3.57574 2.82796C3.51261 3.00237 3.35479 3.11864 3.18119 3.13525L0.427275 3.40933C0.0169494 3.45085 -0.148759 3.9907 0.158985 4.28139L2.23429 6.19991C2.36843 6.32449 2.42367 6.50721 2.38421 6.68992L1.76083 9.38076C1.66614 9.80441 2.10014 10.1532 2.46312 9.92899L4.75937 8.5087C4.9093 8.41735 5.09079 8.41735 5.24071 8.5087L7.53704 9.92899C7.90002 10.1532 8.33402 9.81272 8.23925 9.38076L7.62376 6.68992C7.5843 6.50721 7.63954 6.32449 7.77368 6.19991L9.84899 4.28139C10.1488 3.9907 9.97524 3.45085 9.56491 3.40933Z" id="enable" fill="#DD0016" stroke="none" />
  </g>
</svg>
